<svg width="247" height="249" viewBox="0 0 247 249" fill="none" xmlns="http://www.w3.org/2000/svg">
<path d="M116.13 221.288C116.132 218.917 115.572 216.578 114.492 214.451C113.413 212.325 111.843 210.469 109.905 209.028C107.967 207.587 105.712 206.599 103.317 206.141C100.922 205.683 98.4503 205.768 96.0944 206.389C93.7385 207.01 91.5617 208.15 89.7333 209.721C87.9048 211.292 86.4739 213.251 85.5517 215.446C84.6295 217.641 84.2409 220.013 84.4161 222.378C84.5913 224.742 85.3256 227.036 86.5618 229.08L86.607 229.135C87.2172 230.134 87.98 230.847 88.7541 231.879L97.964 243.754C98.231 244.098 98.5767 244.377 98.9738 244.57C99.3709 244.762 99.8086 244.862 100.252 244.862C100.696 244.862 101.134 244.762 101.531 244.57C101.928 244.377 102.274 244.098 102.541 243.754L111.581 232.087C112.408 231.142 113.177 230.15 113.886 229.119L113.92 229.08C115.36 226.721 116.122 224.03 116.13 221.288ZM100.224 227.999C98.8415 227.999 97.49 227.601 96.3405 226.855C95.1909 226.109 94.2951 225.048 93.7663 223.808C93.2374 222.567 93.0993 221.202 93.3695 219.885C93.6396 218.568 94.3059 217.358 95.2839 216.409C96.262 215.46 97.5079 214.814 98.864 214.553C100.22 214.291 101.626 214.427 102.903 214.941C104.18 215.456 105.271 216.327 106.038 217.444C106.806 218.561 107.215 219.874 107.213 221.217C107.213 222.108 107.033 222.99 106.681 223.813C106.33 224.637 105.815 225.385 105.166 226.015C104.517 226.644 103.746 227.144 102.898 227.484C102.05 227.825 101.142 228 100.224 227.999Z" fill="#FE9003"/>
<path d="M45.2133 38.7233C45.2109 38.6812 45.2109 38.6391 45.2133 38.5971V38.2349C45.2133 37.9001 45.2133 37.4392 45.2133 36.841C45.2133 35.6228 45.2133 33.8723 45.1681 31.6608L45.2529 31.7431L17.7305 31.798L17.8717 31.6608V33.4662C17.8717 34.0644 17.8717 34.6625 17.8717 35.2497V38.7233L17.7305 38.5916L37.3199 38.6519L43.1001 38.6903H44.6652H45.072H45.219C45.219 38.6903 45.1794 38.6903 45.0946 38.6903H44.6991H43.1679L37.416 38.7288L17.7305 38.855H17.5949V38.7233C17.5949 37.5855 17.5949 36.4277 17.5949 35.2497V31.6718L17.7361 31.5346L45.2246 31.5895H45.3094V31.6718C45.3094 33.9052 45.2755 35.6722 45.2642 36.9014C45.2642 37.4886 45.2642 37.9495 45.2642 38.2733C45.2642 38.416 45.2642 38.5312 45.2642 38.6245C45.2642 38.7178 45.219 38.7288 45.2133 38.7233Z" fill="#E0E0E0"/>
<path d="M243.554 225.321C243.549 225.279 243.549 225.237 243.554 225.195C243.554 225.102 243.554 224.981 243.554 224.833C243.554 224.498 243.554 224.037 243.554 223.445C243.554 222.221 243.526 220.47 243.509 218.259L243.594 218.341L216.105 218.396C216.167 218.336 215.964 218.533 216.241 218.259V225.316L216.105 225.184L235.695 225.244L241.475 225.283H243.04H243.447H243.594H243.464H243.074H241.537L235.791 225.321L216.054 225.475H215.913V218.264C216.19 217.995 215.992 218.193 216.054 218.127L243.543 218.182H243.627V218.264C243.627 220.498 243.594 222.265 243.582 223.499C243.582 224.081 243.582 224.542 243.582 224.871C243.582 225.014 243.582 225.124 243.582 225.217C243.576 225.252 243.566 225.287 243.554 225.321Z" fill="#E0E0E0"/>
<path d="M182.718 27.5123C182.715 27.4702 182.715 27.4281 182.718 27.3861V27.0239C182.718 26.6891 182.718 26.2282 182.718 25.6355C182.718 24.4173 182.718 22.6613 182.673 20.4498L182.757 20.5321L155.269 20.587L155.41 20.4498V24.0332C155.41 25.2112 155.41 26.369 155.41 27.5068L155.275 27.3751L174.864 27.4354L180.644 27.4739H182.209H182.622H182.718C182.718 27.4739 182.678 27.4739 182.593 27.4739H182.198H180.667L174.915 27.5123L155.229 27.5726H155.094V27.4354C155.094 26.2995 155.094 25.1417 155.094 23.9618V20.4553L155.235 20.3236L182.723 20.373H182.808V20.4553C182.808 22.6887 182.774 24.4557 182.763 25.6904C182.763 26.2776 182.763 26.733 182.763 27.0623V27.408C182.718 27.4793 182.718 27.5178 182.718 27.5123Z" fill="#E0E0E0"/>
<path d="M186.447 20.4498C186.442 20.406 186.442 20.3619 186.447 20.3181V19.9449C186.447 19.5937 186.447 19.1218 186.447 18.5292C186.447 17.289 186.413 15.5385 186.39 13.3873L186.492 13.4861L169.976 13.5245C169.852 13.6453 170.146 13.3599 170.112 13.3873V17.0201C170.112 18.2054 170.112 19.3468 170.112 20.4443L169.982 20.3181L181.797 20.3785L185.238 20.4114H186.164H186.498C186.398 20.4192 186.298 20.4192 186.198 20.4114H185.294L181.904 20.4498L169.999 20.5102H169.863V20.3785C169.863 19.281 169.863 18.1395 169.863 16.9542V13.3928L170.005 13.2556L186.52 13.2941H186.622V13.3928C186.622 15.5878 186.577 17.3384 186.566 18.5895C186.566 19.1767 186.566 19.6431 186.566 19.9834C186.566 20.3236 186.453 20.4608 186.447 20.4498Z" fill="#E0E0E0"/>
<path d="M27.5845 228.433C27.5845 228.433 27.5845 228.383 27.5845 228.301V227.939C27.5845 227.61 27.5845 227.143 27.5845 226.55C27.5845 225.332 27.5845 223.576 27.5337 221.37L27.6184 221.453L0.129955 221.502L0.271212 221.37V224.948C0.271212 226.122 0.271212 227.286 0.271212 228.422L0.135606 228.285L19.725 228.35L25.5052 228.383H27.0703H27.4828H27.6241H27.4998H27.1042H25.573L19.8211 228.422L0.135606 228.482H0V228.35C0 227.214 0 226.051 0 224.877V221.299L0.141256 221.162L27.6297 221.217H27.7145V221.299C27.7145 223.527 27.6806 225.299 27.6693 226.529C27.6693 227.116 27.6693 227.571 27.6693 227.9V228.246C27.6555 228.314 27.6266 228.377 27.5845 228.433Z" fill="#E0E0E0"/>
<path d="M31.2911 221.37C31.2869 221.325 31.2869 221.279 31.2911 221.233C31.2911 221.134 31.2911 221.008 31.2911 220.86C31.2911 220.514 31.2911 220.042 31.2911 219.444C31.2911 218.204 31.2572 216.453 31.2346 214.308L31.3363 214.401L14.8206 214.439L14.9562 214.308V217.935C14.9562 219.115 14.9562 220.262 14.9562 221.359L14.8262 221.228L26.6409 221.288L30.0819 221.326H31.0086H31.3419C31.2423 221.334 31.1421 221.334 31.0424 221.326H30.1384L26.7483 221.359L14.8432 221.42H14.7076V221.293C14.7076 220.196 14.7076 219.049 14.7076 217.869V214.242L14.8488 214.105L31.3645 214.143H31.4662V214.242C31.4662 216.437 31.421 218.182 31.4097 219.439C31.4097 220.026 31.4097 220.487 31.4097 220.832C31.4097 221.178 31.3193 221.376 31.2911 221.37Z" fill="#E0E0E0"/>
<path d="M244.837 248.857C244.837 248.934 190.724 249 123.989 249C57.254 249 3.13022 248.934 3.13022 248.857C3.13022 248.78 57.2314 248.715 123.989 248.715C190.747 248.715 244.837 248.78 244.837 248.857Z" fill="black"/>
<path d="M233.299 41.6372H14.702C10.6983 41.6372 7.4527 44.7893 7.4527 48.6777V192.347C7.4527 196.235 10.6983 199.387 14.702 199.387H233.299C237.302 199.387 240.548 196.235 240.548 192.347V48.6777C240.548 44.7893 237.302 41.6372 233.299 41.6372Z" fill="black"/>
<path d="M240.548 48.6777L240.514 48.1838C240.505 47.9811 240.48 47.7794 240.441 47.5802C240.399 47.2996 240.334 47.0226 240.249 46.7516C239.978 45.8344 239.517 44.9806 238.894 44.2427C238.271 43.5047 237.5 42.8982 236.627 42.4603C236.018 42.1579 235.37 41.9382 234.7 41.8073C233.953 41.688 233.196 41.6438 232.44 41.6756H227.191H214.099L130.673 41.725H73.0408H15.6003C14.8902 41.6977 14.179 41.7344 13.4759 41.8347C12.7764 41.9499 12.0997 42.1703 11.47 42.4878C10.1978 43.1219 9.15072 44.1121 8.46408 45.3303C8.13082 45.9438 7.8874 46.5995 7.74085 47.2784C7.62435 47.971 7.57893 48.6732 7.60524 49.3746V62.2868C7.60524 68.0779 7.60524 73.9313 7.60524 79.8469V116.065C7.60524 140.676 7.60524 166.155 7.60524 192.253C7.6004 193.86 8.17469 195.417 9.22844 196.655C10.2822 197.893 11.7489 198.733 13.3741 199.031C14.1912 199.148 15.0182 199.189 15.8433 199.151H81.7704H154.851H220.959H232.457C233.08 199.171 233.703 199.143 234.322 199.069C235.831 198.866 237.232 198.195 238.318 197.158C239.404 196.12 240.117 194.769 240.35 193.307C240.42 192.723 240.445 192.134 240.424 191.546C240.424 190.953 240.424 190.366 240.424 189.773V186.256C240.424 176.923 240.424 167.973 240.424 159.405C240.424 125.201 240.463 97.5167 240.475 78.3817C240.475 68.8224 240.475 61.3704 240.503 56.3547C240.503 53.8415 240.503 51.9208 240.503 50.6258C240.503 49.3307 240.503 48.6777 240.503 48.6777C240.503 48.6777 240.503 49.3362 240.503 50.6258C240.503 51.9153 240.503 53.8415 240.503 56.3547C240.503 61.3923 240.503 68.8224 240.503 78.3817C240.503 97.5167 240.537 125.201 240.559 159.405C240.559 167.958 240.559 176.908 240.559 186.256C240.559 187.424 240.559 188.593 240.559 189.773V191.546C240.578 192.145 240.552 192.744 240.48 193.34C240.303 194.558 239.806 195.711 239.038 196.689C238.271 197.667 237.258 198.437 236.096 198.926C235.508 199.167 234.891 199.335 234.259 199.426C233.63 199.501 232.995 199.531 232.361 199.513H220.981H154.873H81.793H15.8546C15.0105 199.55 14.1647 199.508 13.3289 199.387C11.6284 199.076 10.0935 198.197 8.99038 196.902C7.88722 195.607 7.28527 193.978 7.28883 192.297C7.28883 166.199 7.28883 140.715 7.28883 116.108C7.28883 103.805 7.28883 91.7329 7.28883 79.8908V49.4295C7.26455 48.7095 7.31375 47.9889 7.43573 47.2784C7.58828 46.5711 7.84119 45.8878 8.18722 45.248C8.90832 43.9798 9.99932 42.9469 11.3231 42.2792C11.98 41.951 12.6852 41.7233 13.4137 41.6043C14.1336 41.5006 14.8618 41.462 15.589 41.489H40.953H73.0464H130.679L214.105 41.5384H227.197H232.44C233.196 41.5136 233.953 41.5614 234.7 41.6811C235.378 41.8132 236.032 42.0386 236.644 42.3506C237.522 42.7944 238.297 43.4087 238.921 44.1553C239.545 44.9019 240.005 45.7651 240.271 46.6912C240.354 46.9624 240.414 47.2394 240.452 47.5198C240.49 47.721 240.513 47.9246 240.52 48.1289C240.548 48.5076 240.548 48.6777 240.548 48.6777Z" fill="black"/>
<path d="M228.835 114.457C230.064 114.457 231.266 114.811 232.288 115.474C233.31 116.137 234.107 117.08 234.577 118.183C235.048 119.286 235.171 120.5 234.931 121.671C234.691 122.842 234.099 123.917 233.23 124.761C232.361 125.605 231.253 126.18 230.048 126.413C228.842 126.646 227.592 126.527 226.457 126.07C225.321 125.613 224.35 124.839 223.667 123.847C222.984 122.854 222.62 121.687 222.62 120.493C222.62 118.892 223.275 117.357 224.44 116.225C225.606 115.093 227.187 114.457 228.835 114.457Z" fill="#6A707C"/>
<path d="M19.7702 104.349V136.577C19.771 136.872 19.7117 137.165 19.5959 137.438C19.4801 137.71 19.31 137.959 19.0954 138.168C18.8807 138.377 18.6257 138.542 18.3449 138.655C18.0642 138.769 17.7632 138.827 17.4593 138.827C17.1551 138.827 16.8538 138.769 16.5727 138.656C16.2917 138.543 16.0363 138.377 15.8212 138.168C15.6061 137.959 15.4354 137.711 15.319 137.438C15.2026 137.165 15.1427 136.872 15.1427 136.577V104.365C15.1427 103.768 15.3867 103.196 15.8212 102.774C16.2556 102.352 16.8449 102.115 17.4593 102.115C18.0702 102.115 18.6563 102.35 19.0894 102.769C19.5224 103.187 19.7672 103.755 19.7702 104.349Z" fill="#6A707C"/>
<path d="M218.744 46.7461H24.0814V194.547H218.744V46.7461Z" fill="#EBEBEB"/>
<path d="M149.59 153.44L164.643 179.204L201.652 178.672L199.556 150.713L149.59 153.44Z" fill="#E0E0E0"/>
<path d="M100.671 66.4353L95.235 107.158L106.462 109.759L128.413 107.641L124.385 63.1538L100.671 66.4353Z" fill="#E0E0E0"/>
<path d="M66.5713 149.78H40.6254V119.439L68.8201 119.714L66.5713 149.78Z" fill="#F5F5F5"/>
<path d="M173.384 150.713C173.384 149.851 177.955 119.714 177.955 119.714C177.955 119.714 195.843 114.956 195.911 115.637C195.979 116.317 199.471 149.912 199.471 149.912L173.384 150.713Z" fill="#F5F5F5"/>
<path d="M43.6086 73.5252C43.6595 74.2606 55.9996 98.3618 55.9996 98.3618L70.2891 94.6852V66.9567L55.5533 66.6274L43.6086 73.5252Z" fill="#E0E0E0"/>
<path d="M130.871 123.813H111.112V132.867H130.871V123.813Z" fill="#E0E0E0"/>
<path d="M130.962 135.869L111.061 136.846L110.05 155.196L132.775 153.44L130.962 135.869Z" fill="#E0E0E0"/>
<path d="M210.675 101.841L207.912 64.5916H218.693L218.744 101.1L210.675 101.841Z" fill="#E0E0E0"/>
<path d="M166.524 58.4894L171.016 104.908L194.583 102.856L190.47 63.2635L171.813 58.4894H166.524Z" fill="#E0E0E0"/>
<path d="M58.2428 66.7921L24.217 66.2927L24.2509 64.0977L56.4009 64.5696L60.1131 46.7626L62.3336 47.1961L58.2428 66.7921Z" fill="white"/>
<path d="M40.4615 102.648L23.9741 66.7372L24.4882 66.5122L40.7836 101.995L70.2213 94.4163L70.3626 94.9486L40.4615 102.648Z" fill="white"/>
<path d="M68.8257 119.165H24.2396V120.263H68.8257V119.165Z" fill="white"/>
<path d="M40.9022 102.324H40.3372V149.785H40.9022V102.324Z" fill="white"/>
<path d="M66.7239 149.538H24.2396V150.087H66.7239V149.538Z" fill="white"/>
<path d="M64.5203 192.72L24.0588 184.05L24.5448 181.904L62.4579 190.031L68.9614 102.148L69.9389 65.5958L71.4588 46.8943L73.7076 47.0644L72.1933 65.7384L71.2215 102.258L64.5203 192.72Z" fill="white"/>
<path d="M70.9728 68.1255L57.2088 66.7756L57.4405 64.5915L69.6055 65.7878L71.617 61.6173L89.7486 65.8866L171.282 56.8596L199.686 64.0263L218.659 63.494L218.727 65.6836L199.431 66.2323L171.118 59.0876L89.6074 68.1091L72.8826 64.1745L70.9728 68.1255Z" fill="white"/>
<path d="M165.767 152.419L163.524 152.134L169.875 104.897L164.993 58.5333V46.7461H167.253V58.4784L172.152 104.925L165.767 152.419Z" fill="white"/>
<path d="M65.6108 158.917L65.4752 156.727L198.748 148.858L216.885 112.992L218.913 113.957L200.2 150.971L199.544 151.009L65.6108 158.917Z" fill="white"/>
<path d="M132.34 154.763L123.82 63.2032L123.356 46.9985L124.486 46.9656L124.95 63.1428L133.465 154.664L132.34 154.763Z" fill="white"/>
<path d="M114.451 193.96L104.597 154.878V110.67L93.506 107.992L98.32 66.0293L97.8737 46.768L100.134 46.7187L100.586 66.128L100.58 66.1994L95.9695 106.324L106.858 108.958V154.609L116.649 193.439L114.451 193.96Z" fill="white"/>
<path d="M105.728 119.439H68.8201V119.988H105.728V119.439Z" fill="white"/>
<path d="M70.142 101.955L70.0281 102.493L94.6777 107.42L94.7916 106.882L70.142 101.955Z" fill="white"/>
<path d="M105.665 137.883L96.8962 136.001V119.714H97.4612V135.562L105.79 137.345L105.665 137.883Z" fill="white"/>
<path d="M91.9748 193.933L87.0478 178.573H64.4977V176.378H88.709L94.1332 193.28L91.9748 193.933Z" fill="white"/>
<path d="M164.479 179.484L149.347 153.572L149.839 153.303L164.807 178.93L218.62 178.15L218.631 178.699L164.479 179.484Z" fill="white"/>
<path d="M190.956 179.204H190.391V193.998H190.956V179.204Z" fill="white"/>
<path d="M201.369 178.694L199.273 150.735L188.47 46.7735L189.035 46.7187L199.838 150.685L201.934 178.65L201.369 178.694Z" fill="white"/>
<path d="M218.723 100.816L105.707 109.531L105.751 110.078L218.768 101.363L218.723 100.816Z" fill="white"/>
<path d="M208.47 65.495L207.345 65.5931L210.701 101.901L211.826 101.803L208.47 65.495Z" fill="white"/>
<path d="M209.755 85.8913L193.197 89.8712L193.333 90.4038L209.891 86.424L209.755 85.8913Z" fill="white"/>
<path d="M202.477 87.7215L199.544 71.5772L191.278 70.7266L191.334 70.1833L200.025 71.0778L203.03 87.6227L202.477 87.7215Z" fill="white"/>
<path d="M146.514 61.28L145.388 61.3738L149.313 105.835L150.438 105.742L146.514 61.28Z" fill="white"/>
<path d="M168.467 85.5907L148.441 89.8704L148.563 90.4064L168.588 86.1267L168.467 85.5907Z" fill="white"/>
<path d="M164.096 179.14L162.039 194.629L163.159 194.769L165.217 179.28L164.096 179.14Z" fill="white"/>
<path d="M71.0689 120.647L68.8201 154.713L103.88 153.056V139.688L94.6982 137.718V122.112L71.0689 120.647Z" fill="#E0E0E0"/>
<path d="M61.4126 128.944C61.4133 127.754 61.1316 126.581 60.5895 125.514C60.0474 124.448 59.2594 123.517 58.2869 122.795C57.3143 122.072 56.1832 121.577 54.9816 121.347C53.7799 121.118 52.54 121.161 51.3582 121.473C50.1764 121.784 49.0845 122.356 48.1672 123.144C47.25 123.932 46.5321 124.915 46.0694 126.016C45.6067 127.117 45.4117 128.307 45.4994 129.494C45.5871 130.68 45.9552 131.831 46.5751 132.856V132.884C46.8802 133.383 47.2587 133.74 47.6486 134.267L52.2705 140.215C52.4048 140.388 52.5786 140.528 52.7781 140.625C52.9776 140.721 53.1975 140.771 53.4203 140.771C53.6432 140.771 53.8631 140.721 54.0626 140.625C54.2621 140.528 54.4359 140.388 54.5702 140.215L59.0904 134.365C59.5039 133.891 59.8906 133.394 60.2487 132.878C60.9959 131.693 61.3982 130.333 61.4126 128.944ZM53.4458 132.313C52.7513 132.314 52.0721 132.115 51.4943 131.741C50.9164 131.367 50.4658 130.835 50.1995 130.212C49.9332 129.589 49.8633 128.903 49.9985 128.242C50.1337 127.58 50.468 126.973 50.959 126.496C51.4501 126.019 52.0758 125.694 52.757 125.563C53.4381 125.432 54.1441 125.499 54.7855 125.758C55.4269 126.017 55.9748 126.454 56.3599 127.016C56.7451 127.577 56.95 128.236 56.9489 128.911C56.9474 129.813 56.5779 130.677 55.9212 131.315C55.2646 131.953 54.3744 132.312 53.4458 132.313Z" fill="#FE9003"/>
<path d="M136.386 101.72C136.389 100.53 136.109 99.3547 135.568 98.2865C135.027 97.2182 134.24 96.2856 133.267 95.5613C132.294 94.8369 131.163 94.3402 129.96 94.1099C128.757 93.8797 127.516 93.922 126.333 94.2336C125.15 94.5453 124.057 95.1178 123.139 95.9067C122.222 96.6955 121.503 97.6795 121.041 98.7819C120.578 99.8843 120.384 101.076 120.473 102.263C120.562 103.45 120.932 104.601 121.554 105.627V105.66C121.859 106.16 122.243 106.516 122.633 107.043L127.266 112.981C127.401 113.153 127.574 113.293 127.774 113.39C127.973 113.486 128.193 113.537 128.416 113.537C128.639 113.537 128.859 113.486 129.058 113.39C129.258 113.293 129.432 113.153 129.566 112.981L134.126 107.136C134.531 106.662 134.908 106.165 135.256 105.649C135.99 104.462 136.381 103.105 136.386 101.72ZM128.419 105.089C127.725 105.089 127.047 104.89 126.47 104.515C125.893 104.141 125.443 103.609 125.177 102.986C124.912 102.363 124.842 101.678 124.978 101.017C125.113 100.356 125.447 99.7487 125.938 99.2721C126.429 98.7955 127.054 98.4709 127.734 98.3394C128.415 98.208 129.121 98.2755 129.762 98.5334C130.403 98.7913 130.951 99.2281 131.336 99.7885C131.722 100.349 131.928 101.008 131.928 101.682C131.928 102.13 131.837 102.573 131.66 102.987C131.483 103.401 131.224 103.777 130.898 104.093C130.572 104.41 130.184 104.661 129.758 104.832C129.331 105.003 128.875 105.09 128.413 105.089H128.419Z" fill="#FE9003"/>
<path d="M103.309 168.745C103.312 167.928 103.121 167.122 102.75 166.389C102.379 165.656 101.839 165.016 101.172 164.518C100.505 164.021 99.7289 163.68 98.9039 163.522C98.0789 163.364 97.2274 163.393 96.4158 163.606C95.6042 163.82 94.8543 164.213 94.2245 164.754C93.5948 165.295 93.1022 165.97 92.7851 166.727C92.468 167.483 92.3349 168.3 92.3962 169.115C92.4576 169.929 92.7117 170.719 93.1388 171.423C93.3479 171.763 93.6134 172.01 93.879 172.367L97.0488 176.449C97.1411 176.567 97.2599 176.661 97.3961 176.727C97.5323 176.792 97.6822 176.826 97.8342 176.826C97.9861 176.826 98.136 176.792 98.2722 176.727C98.4084 176.661 98.5272 176.567 98.6195 176.449L101.738 172.438C102.022 172.112 102.288 171.771 102.535 171.417C103.034 170.609 103.301 169.687 103.309 168.745ZM97.8454 171.055C97.3691 171.056 96.9032 170.92 96.5067 170.664C96.1101 170.408 95.8007 170.043 95.6176 169.616C95.4346 169.189 95.3861 168.719 95.4784 168.265C95.5706 167.811 95.7994 167.394 96.1358 167.066C96.4722 166.739 96.9011 166.516 97.3681 166.425C97.8352 166.334 98.3195 166.38 98.7596 166.557C99.1998 166.734 99.576 167.034 99.8408 167.418C100.105 167.803 100.247 168.255 100.247 168.717C100.248 169.024 100.186 169.328 100.066 169.612C99.9453 169.895 99.7685 170.153 99.5455 170.37C99.3224 170.587 99.0574 170.759 98.7657 170.877C98.474 170.995 98.1613 171.055 97.8454 171.055Z" fill="#FE9003"/>
<path d="M202.42 72.4277C202.414 71.1059 201.901 69.8337 200.98 68.8603C200.059 67.8869 198.797 67.2823 197.442 67.1649C196.086 67.0475 194.734 67.4258 193.65 68.2256C192.567 69.0255 191.83 70.1894 191.583 71.4894C191.35 72.7334 191.587 74.0175 192.25 75.1056C192.459 75.4459 192.724 75.6928 192.99 76.055L196.16 80.1322C196.252 80.2494 196.371 80.3444 196.507 80.4097C196.643 80.4751 196.793 80.5091 196.945 80.5091C197.097 80.5091 197.247 80.4751 197.383 80.4097C197.519 80.3444 197.638 80.2494 197.731 80.1322L200.849 76.1208C201.133 75.7945 201.399 75.4538 201.646 75.1002C202.145 74.2924 202.412 73.3697 202.42 72.4277ZM196.956 74.738C196.48 74.7391 196.014 74.6027 195.617 74.3463C195.22 74.0898 194.911 73.7248 194.728 73.2974C194.545 72.87 194.497 72.3996 194.59 71.9456C194.682 71.4916 194.912 71.0746 195.249 70.7473C195.586 70.42 196.015 70.1973 196.483 70.1073C196.95 70.0172 197.434 70.064 197.875 70.2416C198.315 70.4192 198.69 70.7197 198.955 71.105C199.219 71.4902 199.359 71.943 199.358 72.4058C199.358 73.0243 199.105 73.6175 198.654 74.0549C198.204 74.4923 197.593 74.738 196.956 74.738Z" fill="#FE9003"/>
<path d="M86.0985 74.952C86.1002 73.5059 85.7585 72.0789 85.1001 70.7819C84.4416 69.4849 83.4841 68.3529 82.3019 67.4737C81.1197 66.5945 79.7447 65.9919 78.2838 65.7127C76.8228 65.4335 75.3152 65.4853 73.8782 65.8639C72.4412 66.2425 71.1134 66.9379 69.9981 67.8959C68.8827 68.8539 68.0099 70.0488 67.4473 71.3877C66.8847 72.7266 66.6476 74.1735 66.7544 75.6158C66.8612 77.0582 67.3089 78.4572 68.0629 79.7042L68.0912 79.7371C68.4584 80.3462 68.9274 80.7798 69.3964 81.4163L75.0184 88.6544C75.1817 88.8636 75.3927 89.0332 75.6349 89.15C75.877 89.2668 76.1436 89.3275 76.414 89.3275C76.6843 89.3275 76.951 89.2668 77.1931 89.15C77.4352 89.0332 77.6462 88.8636 77.8096 88.6544L83.3412 81.5206C83.845 80.9433 84.3148 80.3387 84.7481 79.7097C85.627 78.2691 86.0933 76.6265 86.0985 74.952ZM76.4083 79.0457C75.5644 79.0457 74.7394 78.8026 74.0377 78.3471C73.3361 77.8916 72.7893 77.2442 72.4666 76.4868C72.1439 75.7295 72.0597 74.8962 72.2248 74.0923C72.3898 73.2885 72.7967 72.5503 73.3939 71.9711C73.991 71.3919 74.7517 70.9977 75.5796 70.8385C76.4074 70.6792 77.2654 70.7621 78.0448 71.0765C78.8242 71.3909 79.49 71.9228 79.9581 72.6048C80.4262 73.2869 80.6754 74.0884 80.6743 74.9081C80.6728 76.006 80.2227 77.0584 79.4228 77.8342C78.623 78.61 77.5388 79.0457 76.4083 79.0457Z" fill="#FE9003"/>
<path d="M34.1162 225.239C34.1162 225.239 21.3918 211.054 16.6004 196.863C11.809 182.672 14.0917 184.318 14.0917 184.318C14.0917 184.318 20.5556 198.087 25.4657 204.743C30.3757 211.399 39.1167 221.173 39.1167 221.173L34.1162 225.239Z" fill="#6A707C"/>
<path d="M36.6193 186.513C36.5349 186.367 36.4002 186.253 36.2385 186.193C36.0768 186.132 35.8984 186.129 35.7345 186.183C35.5705 186.237 35.4312 186.345 35.341 186.489C35.2508 186.633 35.2152 186.803 35.2406 186.969C36.0147 191.957 37.6872 203.651 37.6194 211.235C37.5346 221.112 37.6194 224.899 37.6194 224.899H42.9024C42.9024 224.899 41.9644 204.529 40.7722 198.317C39.9416 193.966 38.1618 189.131 36.6193 186.513Z" fill="#6A707C"/>
<path d="M39.4952 223.242C41.7116 218.371 43.1775 213.211 43.8459 207.926C44.281 204.299 43.5069 199.393 42.3486 192.852C41.9036 190.459 41.6805 188.033 41.6819 185.603C41.6896 185.333 41.7885 185.074 41.9633 184.865C42.1382 184.656 42.3791 184.509 42.6489 184.446C42.9186 184.384 43.202 184.409 43.4552 184.519C43.7084 184.629 43.9172 184.817 44.0493 185.054C44.6878 186.151 46.5298 189.932 46.9987 192.303C48.2814 198.762 49.7278 201.988 48.6204 208.118C47.5129 214.247 43.4221 223.686 43.4221 223.686L39.4952 223.242Z" fill="#6A707C"/>
<path d="M44.2866 223.659C44.2866 223.659 58.2201 194.575 59.1863 190.256C60.1525 185.937 63.4353 175.988 63.8252 176.537C64.2151 177.086 64.7914 182.354 62.277 188.357C59.7627 194.361 49.0441 224.52 49.0441 224.52H44.2866" fill="#6A707C"/>
<path d="M37.9697 222.358C37.8329 222.28 37.7025 222.192 37.5798 222.095C37.3312 221.914 36.9583 221.656 36.5006 221.293C35.574 220.586 34.2744 219.51 32.7545 218.083C28.83 214.325 25.4315 210.081 22.6462 205.462C19.8685 200.855 17.5562 195.998 15.7416 190.958C15.041 189.027 14.5325 187.446 14.1991 186.349C14.0296 185.8 13.9109 185.372 13.8262 185.081C13.7802 184.934 13.7443 184.783 13.7188 184.631C13.7873 184.771 13.844 184.916 13.8883 185.065C13.9901 185.372 14.1313 185.789 14.3121 186.316C14.6737 187.413 15.2162 188.972 15.9394 190.893C17.8058 195.899 20.1357 200.732 22.9005 205.33C25.6793 209.926 29.039 214.166 32.9014 217.952C34.3931 219.389 35.6701 220.487 36.5741 221.244C37.0205 221.623 37.3821 221.892 37.6194 222.089C37.7448 222.168 37.8621 222.258 37.9697 222.358Z" fill="black"/>
<path d="M39.4953 208.403C39.4314 208.121 39.3898 207.835 39.371 207.547C39.3032 206.944 39.2184 206.159 39.1167 205.215C38.8963 203.25 38.5517 200.534 38.0545 197.532C37.5572 194.531 37.0148 191.869 36.5854 189.932C36.382 189.005 36.2125 188.231 36.0769 187.638C35.9979 187.36 35.9468 187.075 35.9243 186.788C36.034 187.055 36.1227 187.331 36.1899 187.611C36.3481 188.16 36.5571 188.923 36.7945 189.888C37.2747 191.814 37.8567 194.498 38.3483 197.483C38.8398 200.468 39.1563 203.201 39.3258 205.166C39.4105 206.153 39.4614 206.955 39.4896 207.509C39.5206 207.806 39.5225 208.106 39.4953 208.403Z" fill="black"/>
<path d="M42.7611 184.796C42.8286 184.915 42.8835 185.04 42.9249 185.169L43.3431 186.267C43.5295 186.733 43.7386 187.309 43.942 187.995C44.1454 188.681 44.4166 189.449 44.62 190.327C44.7274 190.761 44.846 191.216 44.9647 191.694C45.0833 192.171 45.1624 192.676 45.2698 193.192C45.4958 194.223 45.6371 195.343 45.8348 196.517C46.1347 199.076 46.2461 201.653 46.1682 204.227C46.0582 206.806 45.758 209.373 45.2698 211.91C45.0155 213.073 44.7895 214.182 44.4901 215.202C44.3432 215.707 44.2245 216.206 44.0719 216.673C43.9194 217.139 43.7668 217.584 43.6256 218.012C43.36 218.873 43.0606 219.62 42.778 220.289C42.4955 220.959 42.2752 221.518 42.0548 221.974L41.5576 223.022C41.5083 223.148 41.4438 223.268 41.3655 223.379C41.4007 223.249 41.446 223.123 41.5011 223L41.9475 221.93C42.1509 221.469 42.3882 220.904 42.6255 220.229C42.8628 219.554 43.1905 218.808 43.4278 217.952L43.8516 216.607C43.9985 216.141 44.1115 215.647 44.2471 215.142C44.5409 214.127 44.75 213.024 44.9986 211.849C45.4669 209.329 45.7595 206.781 45.8744 204.222C45.9487 201.657 45.8449 199.09 45.5636 196.539C45.4054 195.37 45.2698 194.251 45.0551 193.247C44.9534 192.731 44.8799 192.226 44.7669 191.754L44.4449 190.388C44.2528 189.51 44.0041 188.741 43.812 188.055C43.6199 187.37 43.4278 186.788 43.247 186.31C43.0662 185.833 42.9701 185.493 42.8797 185.213C42.8238 185.079 42.784 184.939 42.7611 184.796Z" fill="black"/>
<path d="M63.6387 177.141C63.6412 177.185 63.6412 177.229 63.6387 177.272C63.6387 177.377 63.5992 177.497 63.5766 177.651C63.5144 177.98 63.4353 178.474 63.2997 179.1C63.0285 180.351 62.5821 182.151 61.8871 184.335C61.1922 186.519 60.2373 189.082 59.1072 191.897C57.9772 194.712 56.6776 197.779 55.4402 201.044C54.2028 204.31 53.2197 207.492 52.31 210.373C51.4003 213.254 50.5528 215.861 49.7222 218.001C49.0853 219.697 48.3515 221.356 47.5242 222.973C47.2417 223.549 46.9592 223.977 46.8179 224.273L46.6202 224.608C46.5994 224.647 46.5748 224.683 46.5467 224.718C46.5467 224.718 46.5467 224.674 46.5976 224.591L46.7614 224.246C46.914 223.944 47.1513 223.505 47.4225 222.923C47.9875 221.771 48.739 220.075 49.5301 217.93C50.3211 215.784 51.1573 213.188 52.0444 210.296C52.9315 207.404 53.9033 204.211 55.1634 200.94C56.4234 197.67 57.7173 194.602 58.853 191.792C59.9887 188.983 60.9662 186.437 61.6781 184.269C62.39 182.101 62.8759 180.307 63.1811 179.067C63.3336 178.447 63.4297 177.969 63.5088 177.635C63.5483 177.486 63.5766 177.36 63.5992 177.261C63.6058 177.219 63.6191 177.179 63.6387 177.141Z" fill="black"/>
<path d="M20.6629 170.715C20.4699 170.538 20.222 170.428 19.9578 170.402C19.6936 170.376 19.428 170.435 19.2023 170.571C18.9766 170.707 18.8035 170.912 18.71 171.153C18.6165 171.394 18.6078 171.659 18.6853 171.906C19.1613 173.407 19.7466 174.875 20.4369 176.296C22.3524 180.247 27.98 194.437 30.6074 202.23C33.2347 210.022 36.9413 224.542 36.9413 224.542L42.5915 223.659C42.5915 223.659 37.4442 199.771 32.4211 191.167C28.3699 184.253 24.3299 174.254 20.6629 170.715Z" fill="#6A707C"/>
<path d="M32.1555 207.086C32.2718 207.297 32.3683 207.517 32.4437 207.745C32.6132 208.173 32.8392 208.798 33.0935 209.578C33.6133 211.136 34.2235 213.315 34.8846 215.729C35.5457 218.144 36.0542 220.35 36.4215 221.946L36.8453 223.84C36.9011 224.07 36.9333 224.305 36.9413 224.542C36.838 224.326 36.7602 224.1 36.7096 223.867C36.574 223.368 36.3989 222.742 36.1955 221.996C35.7661 220.35 35.201 218.193 34.5739 215.8C33.9467 213.408 33.3364 211.207 32.8788 209.638L32.3138 207.778C32.234 207.554 32.1809 207.322 32.1555 207.086Z" fill="black"/>
<path d="M39.7664 224.103C39.7481 224.055 39.7367 224.006 39.7325 223.955C39.7325 223.84 39.693 223.697 39.6704 223.527C39.6082 223.148 39.5574 222.583 39.4387 221.881C39.2353 220.443 38.8737 218.38 38.2578 215.844C37.5401 212.891 36.6611 209.977 35.6248 207.114C34.4948 203.876 33.0257 200.38 31.3871 196.759C28.0761 189.526 24.7707 183.117 22.5953 178.37C21.4992 176.005 20.646 174.073 20.0866 172.729C19.8041 172.059 19.6007 171.533 19.4538 171.176L19.3012 170.77C19.2801 170.724 19.2649 170.676 19.256 170.627C19.256 170.627 19.256 170.665 19.3295 170.759L19.5103 171.154L20.194 172.685C20.8099 174.018 21.6856 175.934 22.8157 178.282C25.0362 183.001 28.3699 189.394 31.6866 196.638C33.3308 200.265 34.7716 203.772 35.913 207.02C36.9409 209.898 37.803 212.829 38.4951 215.8C38.9599 217.794 39.3219 219.808 39.58 221.837C39.6817 222.556 39.7156 223.121 39.7551 223.483C39.7551 223.664 39.7551 223.807 39.7947 223.916C39.7964 223.98 39.7869 224.043 39.7664 224.103Z" fill="black"/>
<path d="M42.5916 223.659C42.5069 223.356 42.4446 223.048 42.4051 222.737C42.2921 222.1 42.1452 221.25 41.9644 220.229C41.5802 218.111 40.9869 215.197 40.1337 211.998C39.2805 208.798 38.3426 206 37.6137 203.969L36.7323 201.566C36.6096 201.277 36.5095 200.98 36.4328 200.677C36.5934 200.948 36.7295 201.233 36.8396 201.527C37.0826 202.076 37.4046 202.888 37.8115 203.898C38.8279 206.527 39.6992 209.207 40.4219 211.926C41.1483 214.64 41.7329 217.387 42.1735 220.158C42.3317 221.222 42.456 222.084 42.5181 222.687C42.5731 223.008 42.5977 223.333 42.5916 223.659Z" fill="black"/>
<path d="M54.1294 222.874H32.1725V248.857H54.1294V222.874Z" fill="#0F2944"/>
<g opacity="0.3">
<path d="M54.1294 222.874H32.1725V248.857H54.1294V222.874Z" fill="black"/>
</g>
<path d="M47.1287 222.874H27.6466V248.857H47.1287V222.874Z" fill="#0F2944"/>
<path d="M131.747 168.136C131.747 168.136 131.747 187.43 131.498 188.516C131.25 189.603 130.668 195.387 132.12 198.07C133.572 200.754 137.024 206.192 140.03 206.949C143.036 207.706 144.737 206.949 144.737 206.949C144.737 206.949 146.584 194.383 145.98 190.777C145.375 187.172 144.002 179.303 144.002 179.303L134.691 169.041L131.747 168.136Z" fill="#FFBE9D"/>
<path d="M155.15 141.653L163.925 139.035L180.52 137.96L190.56 139.809L179.655 156.782L163.925 155.63L155.15 141.653Z" fill="#FFBE9D"/>
<path d="M189.888 106.626C189.981 110.707 189.183 114.76 187.547 118.52C185.911 122.279 183.474 125.66 180.396 128.439C178.979 124.462 177.565 120.482 176.152 116.498" fill="black"/>
<path d="M157.896 82.876C161.541 80.9444 165.942 80.681 170.01 81.4602C174.079 82.2394 177.876 84.0393 181.469 86.0587C183.481 87.1892 185.492 88.4348 186.944 90.2073C189.589 93.4395 192.199 98.7459 192.459 102.867C192.662 106.198 191.329 114.539 189.899 117.568C188.566 120.345 182.339 122.458 179.266 123.143L151.076 91.2829C151.583 89.5125 152.446 87.8576 153.617 86.4144C154.788 84.9711 156.243 83.7684 157.896 82.876Z" fill="black"/>
<path d="M153.031 87.1892L159.812 86.0148C156.116 94.5644 155.116 114.111 152.998 123.154C150.506 119.642 144.72 108.947 145.031 104.689C145.341 100.431 144.997 86.4483 153.031 87.1892Z" fill="black"/>
<path d="M185.097 101.407C184.976 99.0096 184.067 96.7126 182.503 94.8537C180.938 92.9949 178.802 91.6722 176.406 91.0798L160.834 87.2386C154.105 86.5362 149.607 94.5754 149.167 101.138C148.681 108.426 148.376 116.114 149.251 121.558C151.014 132.494 159.642 133.91 159.642 133.91C159.642 133.91 159.642 139.112 159.642 142.306L173.553 153.012L181.644 140.726L185.125 101.561C185.136 101.353 185.113 101.654 185.097 101.407Z" fill="#FFBE9D"/>
<path d="M152.551 109.375C152.546 109.741 152.689 110.095 152.949 110.36C153.208 110.626 153.564 110.782 153.941 110.797C154.125 110.811 154.309 110.789 154.484 110.733C154.659 110.677 154.821 110.588 154.96 110.47C155.099 110.352 155.212 110.209 155.294 110.048C155.375 109.888 155.422 109.713 155.433 109.534C155.437 109.168 155.295 108.815 155.035 108.549C154.776 108.284 154.419 108.127 154.043 108.113C153.859 108.098 153.674 108.119 153.499 108.175C153.323 108.231 153.161 108.32 153.022 108.438C152.883 108.556 152.77 108.699 152.689 108.86C152.608 109.021 152.561 109.196 152.551 109.375Z" fill="black"/>
<path d="M150.856 105.397C151.037 105.583 152.133 104.799 153.681 104.804C155.229 104.81 156.371 105.572 156.54 105.386C156.625 105.304 156.444 104.974 155.947 104.623C155.276 104.168 154.477 103.927 153.659 103.932C152.848 103.925 152.056 104.169 151.399 104.629C150.935 104.985 150.771 105.298 150.856 105.397Z" fill="black"/>
<path d="M166.1 109.375C166.097 109.735 166.237 110.083 166.49 110.346C166.744 110.608 167.092 110.766 167.462 110.786C167.646 110.8 167.831 110.779 168.006 110.724C168.182 110.668 168.344 110.578 168.483 110.461C168.622 110.343 168.735 110.2 168.816 110.038C168.897 109.877 168.944 109.702 168.954 109.523C168.96 109.158 168.819 108.804 168.56 108.539C168.301 108.273 167.946 108.116 167.57 108.102C167.387 108.09 167.203 108.114 167.03 108.172C166.856 108.23 166.697 108.321 166.56 108.439C166.423 108.558 166.312 108.701 166.233 108.862C166.154 109.023 166.109 109.197 166.1 109.375Z" fill="black"/>
<path d="M165.614 105.397C165.795 105.583 166.891 104.799 168.44 104.804C169.988 104.81 171.135 105.572 171.299 105.386C171.383 105.304 171.203 104.974 170.705 104.623C170.035 104.168 169.235 103.927 168.417 103.932C167.607 103.926 166.815 104.17 166.157 104.629C165.694 104.985 165.53 105.298 165.614 105.397Z" fill="black"/>
<path d="M160.761 117.255C160.761 117.168 159.8 117.003 158.235 116.805C157.84 116.767 157.461 116.685 157.399 116.427C157.365 116.027 157.457 115.627 157.665 115.28L158.845 112.35C160.484 108.174 161.671 104.744 161.501 104.667C161.332 104.59 159.857 107.959 158.218 112.114L157.088 115.066C156.841 115.53 156.768 116.064 156.879 116.575C156.939 116.708 157.029 116.827 157.142 116.922C157.256 117.017 157.39 117.086 157.535 117.124C157.754 117.183 157.98 117.215 158.207 117.217C159.778 117.332 160.755 117.338 160.761 117.255Z" fill="black"/>
<path d="M174.581 129.992C174.581 129.992 170.914 137.504 159.648 136.456V133.888C164.901 133.957 170.071 132.608 174.581 129.992Z" fill="#EB996E"/>
<path d="M166.106 99.9422C166.259 100.354 167.801 100.162 169.632 100.381C171.463 100.601 172.926 101.084 173.169 100.716C173.282 100.54 173.022 100.167 172.429 99.7556C171.64 99.2601 170.741 98.9536 169.807 98.8612C168.876 98.7466 167.93 98.852 167.05 99.1685C166.377 99.4264 166.038 99.7502 166.106 99.9422Z" fill="black"/>
<path d="M151.365 100.782C151.636 101.128 152.709 100.782 153.998 100.782C155.286 100.782 156.376 101.018 156.625 100.656C156.738 100.485 156.563 100.14 156.088 99.816C155.45 99.4238 154.706 99.2252 153.951 99.2457C153.196 99.2663 152.465 99.5049 151.85 99.9312C151.393 100.26 151.246 100.612 151.365 100.782Z" fill="black"/>
<path d="M152.206 91.1238C152.896 89.4775 154.755 88.4897 156.58 88.38C158.42 88.377 160.222 88.8875 161.772 89.8506C168.479 93.6151 171.943 102.708 178.554 106.604C180.187 107.564 182.305 106.686 183.69 107.954C185.074 109.222 185.978 111.247 185.21 112.942C186.159 111.798 186.934 110.526 187.509 109.167C187.794 108.484 187.924 107.751 187.892 107.015C187.86 106.28 187.666 105.559 187.323 104.903C186.758 103.937 185.735 103.202 185.458 102.121C185.215 101.171 185.599 100.178 185.56 99.1959C185.446 98.2006 185.092 97.2455 184.526 96.4082C181.932 91.9469 178.362 87.919 173.762 85.4332C170.763 83.7459 167.346 82.8864 163.88 82.9473C160.4 83.0272 157.065 84.3138 154.478 86.5746C152.992 87.9136 151.438 89.3184 152.218 91.1238" fill="black"/>
<path d="M183.554 109.331C183.673 109.019 189.543 106.961 189.622 113.024C189.696 118.913 183.577 117.755 183.565 117.585C183.554 117.414 183.554 109.331 183.554 109.331Z" fill="#FFBE9D"/>
<path d="M185.413 115.335C185.441 115.335 185.52 115.406 185.701 115.483C185.955 115.581 186.238 115.581 186.492 115.483C187.131 115.247 187.662 114.254 187.679 113.195C187.691 112.688 187.585 112.185 187.368 111.724C187.309 111.541 187.205 111.374 187.066 111.238C186.926 111.103 186.754 111.002 186.566 110.945C186.443 110.92 186.316 110.935 186.204 110.987C186.091 111.04 186 111.127 185.944 111.236C185.865 111.4 185.905 111.515 185.876 111.526C185.848 111.537 185.741 111.428 185.792 111.186C185.821 111.039 185.903 110.907 186.023 110.813C186.185 110.695 186.387 110.64 186.588 110.659C186.84 110.702 187.077 110.807 187.275 110.965C187.473 111.123 187.626 111.327 187.718 111.559C187.984 112.069 188.116 112.634 188.102 113.206C188.102 114.391 187.458 115.51 186.583 115.763C186.42 115.81 186.249 115.821 186.082 115.795C185.915 115.77 185.756 115.708 185.616 115.615C185.43 115.477 185.396 115.346 185.413 115.335Z" fill="#EB996E"/>
<path d="M185.967 106.302C185.838 106.248 185.715 106.182 185.599 106.105C185.368 105.962 185.006 105.77 184.582 105.479C183.389 104.627 182.291 103.656 181.305 102.582C179.876 100.971 178.54 99.2837 177.305 97.5277C175.81 95.3851 174.136 93.3662 172.299 91.4914C171.316 90.5558 170.233 89.7261 169.067 89.0165C167.972 88.3663 166.799 87.8485 165.575 87.4745C163.503 86.8275 161.323 86.5686 159.151 86.7118C157.684 86.7969 156.236 87.0719 154.845 87.5294C154.348 87.6776 153.981 87.8367 153.715 87.9355C153.586 87.9915 153.452 88.0356 153.314 88.0672C153.435 87.9977 153.562 87.9372 153.693 87.8861C154.059 87.7106 154.436 87.5584 154.823 87.4306C156.214 86.9295 157.671 86.6228 159.151 86.5197C161.35 86.3522 163.561 86.5962 165.665 87.2385C166.91 87.6125 168.104 88.1322 169.219 88.786C170.403 89.5074 171.504 90.35 172.502 91.2993C174.353 93.1891 176.031 95.2308 177.52 97.4015C178.745 99.1581 180.065 100.851 181.475 102.472C182.437 103.55 183.507 104.533 184.667 105.408C185.085 105.715 185.43 105.918 185.65 106.077C185.762 106.144 185.868 106.219 185.967 106.302Z" fill="#6A707C"/>
<path d="M186.108 116.377C186.406 116.327 186.712 116.388 186.965 116.549C187.218 116.71 187.399 116.958 187.471 117.243C187.543 117.528 187.5 117.829 187.352 118.085C187.204 118.341 186.961 118.533 186.673 118.622C186.381 118.721 186.062 118.706 185.781 118.58C185.501 118.454 185.281 118.228 185.169 117.949C185.057 117.669 185.061 117.358 185.181 117.082C185.3 116.805 185.525 116.584 185.809 116.465" fill="white"/>
<path d="M185.82 116.465C185.552 116.665 185.354 116.941 185.255 117.255C185.211 117.417 185.21 117.586 185.251 117.749C185.293 117.911 185.375 118.06 185.492 118.183C185.628 118.337 185.808 118.449 186.009 118.504C186.211 118.559 186.424 118.556 186.623 118.493C186.822 118.431 186.998 118.313 187.129 118.155C187.259 117.996 187.338 117.803 187.357 117.601C187.377 117.437 187.356 117.27 187.294 117.116C187.231 116.961 187.131 116.825 187.001 116.718C186.736 116.516 186.415 116.398 186.08 116.377C186.08 116.377 186.176 116.317 186.368 116.311C186.541 116.314 186.711 116.351 186.868 116.42C187.026 116.489 187.167 116.588 187.284 116.712C187.4 116.836 187.489 116.981 187.546 117.14C187.602 117.299 187.624 117.467 187.611 117.634C187.592 117.887 187.496 118.129 187.334 118.328C187.173 118.527 186.953 118.675 186.704 118.751C186.456 118.828 186.189 118.831 185.938 118.759C185.688 118.687 185.466 118.543 185.3 118.347C185.163 118.193 185.069 118.007 185.027 117.807C184.985 117.607 184.998 117.4 185.063 117.206C185.143 116.951 185.306 116.728 185.526 116.569C185.712 116.465 185.814 116.449 185.82 116.465Z" fill="black"/>
<path d="M184.441 107.97C184.537 109.578 184.611 111.263 183.848 112.706C183.085 114.149 181.147 115.11 179.712 114.309C178.537 113.661 178.181 112.196 177.983 110.895C177.418 107.147 177.147 103.35 176.536 99.6019L184.441 107.97Z" fill="black"/>
<path d="M153.721 88.3251C153.721 88.358 154.258 88.2263 155.229 88.1934C156.602 88.1719 157.965 88.4143 159.241 88.9068C160.122 89.2389 160.965 89.6601 161.755 90.1634C162.659 90.756 163.527 91.3991 164.355 92.0895C166.262 93.6585 167.969 95.4437 169.44 97.4069C170.214 98.4551 170.898 99.5361 171.632 100.54C172.332 101.515 173.15 102.404 174.067 103.191C175.637 104.491 177.356 105.608 179.192 106.522C180.746 107.323 182.017 107.877 182.938 108.267L183.972 108.695C184.091 108.751 184.216 108.793 184.345 108.821C184.239 108.744 184.123 108.682 184 108.634L182.995 108.146C182.113 107.729 180.836 107.136 179.305 106.319C177.509 105.381 175.823 104.257 174.276 102.966C173.384 102.187 172.59 101.308 171.909 100.348C171.18 99.3605 170.496 98.2795 169.722 97.2149C168.237 95.2277 166.505 93.4268 164.564 91.8536C163.725 91.1616 162.844 90.5202 161.925 89.9329C161.112 89.4262 160.244 89.0085 159.337 88.6873C158.03 88.2037 156.632 87.9924 155.235 88.0672C154.855 88.0867 154.477 88.1362 154.105 88.2153C153.973 88.2367 153.844 88.2735 153.721 88.3251Z" fill="#6A707C"/>
<path d="M184.605 104.332C184.778 104.471 184.968 104.589 185.17 104.683L186.707 105.561L187.227 105.847C187.429 105.963 187.654 106.036 187.888 106.061C188.032 106.074 188.177 106.042 188.3 105.968C188.364 105.922 188.417 105.863 188.456 105.796C188.495 105.729 188.519 105.655 188.526 105.578C188.511 105.306 188.411 105.046 188.238 104.832C187.673 103.981 187.108 103.048 186.458 102.06L186.215 102.28C187.404 103.13 188.86 103.552 190.334 103.471C190.527 103.47 190.718 103.438 190.899 103.377C191.003 103.349 191.098 103.299 191.179 103.23C191.26 103.162 191.325 103.077 191.368 102.982C191.403 102.882 191.413 102.775 191.395 102.671C191.377 102.566 191.333 102.468 191.267 102.384C191.163 102.252 191.048 102.129 190.922 102.016C190.122 101.264 189.427 100.414 188.854 99.4867C188.351 98.6129 187.913 97.7051 187.543 96.7704C187.569 97.043 187.634 97.3107 187.735 97.5661C187.969 98.2721 188.274 98.954 188.645 99.602C189.202 100.568 189.894 101.455 190.702 102.236C190.928 102.445 191.154 102.68 191.063 102.867C190.973 103.054 190.651 103.147 190.329 103.147C188.933 103.213 187.555 102.814 186.424 102.016L185.701 101.501L186.187 102.236L188.006 104.98C188.142 105.136 188.23 105.326 188.261 105.529C188.258 105.568 188.246 105.606 188.226 105.641C188.207 105.675 188.179 105.705 188.147 105.729C188.114 105.752 188.076 105.769 188.037 105.777C187.997 105.785 187.956 105.784 187.916 105.775C187.526 105.703 187.156 105.556 186.826 105.342L185.238 104.552C185.037 104.453 184.825 104.379 184.605 104.332Z" fill="#6A707C"/>
<path d="M166.671 120.038C166.557 119.589 166.285 119.194 165.902 118.92C165.519 118.647 165.049 118.512 164.575 118.539C164.229 118.584 163.899 118.709 163.615 118.905C163.33 119.101 163.099 119.362 162.942 119.664C162.793 119.971 162.709 120.302 162.693 120.641C162.678 120.979 162.732 121.317 162.851 121.634L162.885 121.777C163.208 122.117 163.63 122.353 164.096 122.451C164.561 122.549 165.046 122.506 165.485 122.326C165.914 122.125 166.264 121.791 166.478 121.378C166.693 120.964 166.761 120.493 166.671 120.038Z" fill="#EB996E"/>
<path d="M161.755 121.81C161.755 121.58 163.326 121.651 164.513 120.4C165.699 119.149 165.603 117.513 165.824 117.513C165.925 117.513 166.112 117.892 166.095 118.578C166.062 119.472 165.706 120.327 165.089 120.992C164.498 121.638 163.671 122.032 162.784 122.09C162.123 122.101 161.744 121.914 161.755 121.81Z" fill="black"/>
<path d="M144.014 203.755L144.748 207.909L144.059 210.17C144.059 210.17 136.956 218.95 134.679 225.415C132.402 231.879 132.227 248.907 132.227 248.907L213.139 248.857C213.139 248.857 210.314 223.565 200.143 215.603V213.787L202.658 210.17C202.658 210.17 203.505 207.372 199.832 207.789C198.375 207.953 144.014 203.755 144.014 203.755Z" fill="#6A707C"/>
<path d="M200.595 213.172H200.03L198.386 213.133C196.962 213.101 194.9 213.073 192.346 213.09C189.792 213.106 186.758 213.161 183.385 213.227C180.011 213.293 176.305 213.358 172.406 213.298C168.741 213.25 165.081 213.023 161.439 212.618C158.465 212.285 155.517 211.762 152.613 211.054C150.656 210.58 148.73 209.994 146.844 209.298C146.172 209.062 145.669 208.831 145.319 208.694L144.929 208.524C144.839 208.486 144.793 208.464 144.799 208.458L144.94 208.497L145.341 208.639C145.697 208.76 146.206 208.974 146.884 209.188C148.78 209.833 150.709 210.383 152.664 210.834C155.565 211.511 158.507 212.009 161.473 212.327C164.818 212.705 168.519 212.914 172.412 212.985C176.305 213.057 180.006 212.985 183.379 212.936C186.752 212.887 189.792 212.843 192.346 212.859C194.9 212.876 196.968 212.925 198.392 212.996C199.104 213.024 199.657 213.062 200.03 213.09L200.46 213.122C200.55 213.155 200.601 213.166 200.595 213.172Z" fill="black"/>
<path d="M200.595 216.816C200.549 216.824 200.501 216.824 200.454 216.816H200.025L198.38 216.777C196.956 216.744 194.894 216.717 192.34 216.733C189.786 216.75 186.752 216.805 183.379 216.87C180.006 216.936 176.299 217.002 172.401 216.942C168.502 216.881 164.79 216.651 161.433 216.261C158.459 215.929 155.511 215.406 152.608 214.697C150.65 214.222 148.724 213.634 146.839 212.936C146.166 212.7 145.664 212.475 145.313 212.338L144.923 212.168C144.833 212.129 144.788 212.107 144.793 212.102L144.935 212.14L145.336 212.283C145.692 212.404 146.2 212.612 146.878 212.832C148.774 213.477 150.704 214.027 152.659 214.478C155.56 215.154 158.502 215.653 161.467 215.971C164.812 216.349 168.513 216.558 172.406 216.629C176.299 216.7 180 216.629 183.373 216.58C186.746 216.53 189.786 216.486 192.34 216.503C194.894 216.519 196.962 216.569 198.386 216.64C199.098 216.667 199.652 216.706 200.025 216.733L200.454 216.766C200.55 216.805 200.601 216.81 200.595 216.816Z" fill="black"/>
<path d="M147.477 221.085C147.522 220.696 147.629 220.317 147.794 219.96C148.128 219.076 148.556 218.229 149.071 217.43C149.579 216.63 150.17 215.881 150.833 215.197C151.091 214.896 151.394 214.635 151.732 214.423C151.8 214.483 150.489 215.729 149.319 217.578C148.15 219.428 147.562 221.085 147.477 221.085Z" fill="black"/>
<path d="M150.353 226.139C150.318 225.988 150.308 225.832 150.325 225.678C150.33 225.258 150.358 224.838 150.41 224.421C150.582 223.045 150.889 221.687 151.325 220.366C151.752 219.047 152.285 217.763 152.918 216.525C153.156 215.999 153.449 215.498 153.794 215.032C153.598 215.57 153.367 216.096 153.105 216.607C152.537 217.861 152.037 219.143 151.608 220.448C151.177 221.756 150.847 223.094 150.619 224.449C150.444 225.475 150.398 226.144 150.353 226.139Z" fill="black"/>
<path d="M152.269 206.269C152.353 206.518 152.408 206.776 152.432 207.037C152.565 207.648 152.742 208.25 152.964 208.837C153.466 210.22 154.139 211.235 154.094 211.279C153.455 210.61 152.984 209.809 152.715 208.936C152.48 208.334 152.326 207.705 152.257 207.064C152.193 206.802 152.196 206.529 152.269 206.269Z" fill="black"/>
<path d="M154.664 207.915C154.953 208.487 155.155 209.097 155.263 209.726C155.468 210.332 155.577 210.965 155.585 211.602C155.088 210.425 154.778 209.182 154.664 207.915Z" fill="black"/>
<path d="M169.123 207.366C169.319 209.227 169.319 211.102 169.123 212.963C168.927 211.102 168.927 209.227 169.123 207.366Z" fill="black"/>
<path d="M170.931 208.798C171.354 210.202 171.315 211.698 170.818 213.079C170.734 213.079 170.897 212.113 170.926 210.938C170.954 209.764 170.852 208.809 170.931 208.798Z" fill="black"/>
<path d="M175.819 221.754C175.61 220.963 175.452 220.161 175.344 219.351C175.138 218.557 174.987 217.75 174.892 216.936C175.274 217.677 175.524 218.475 175.632 219.296C175.84 220.099 175.903 220.931 175.819 221.754Z" fill="black"/>
<path d="M127.345 167.038C127.187 166.539 133.131 150.027 136.657 147.525C140.183 145.022 156.099 141.439 156.099 141.439C156.099 141.439 162.801 147.859 171.785 146.526C180.768 145.192 187.667 139.035 187.667 139.035C187.667 139.035 204.669 141.197 207.556 143.195C210.444 145.192 218.292 163.296 218.292 163.296L204.437 174.507L203.211 184.659C203.211 184.659 203.855 205.802 202.409 207.97C200.962 210.137 144.347 204.622 144.347 204.622C144.347 204.622 141.46 204.123 143.703 199.135C145.946 194.147 147.556 190.81 147.556 190.81C147.556 190.81 143.545 186.481 142.9 178.82C142.256 171.159 140.68 170.336 140.68 170.336L127.345 167.038Z" fill="#0F2944"/>
<path d="M203.138 184.269C203.053 184.269 203.906 177.377 205.042 168.904C206.178 160.431 207.155 153.539 207.234 153.566C207.313 153.594 206.449 160.453 205.319 168.953C204.189 177.454 203.217 184.28 203.138 184.269Z" fill="black"/>
<path d="M142.454 173.146C142.381 173.173 141.324 170.704 140.087 167.625C138.849 164.547 137.917 162.034 137.99 162.006C138.064 161.979 139.121 164.448 140.364 167.521C141.607 170.594 142.533 173.118 142.454 173.146Z" fill="black"/>
<g opacity="0.3">
<path d="M160.405 181.942C160.149 180.512 159.536 179.165 158.619 178.019C157.292 176.559 155.19 175.939 153.19 175.95C151.184 176.054 149.204 176.433 147.308 177.075L143.697 182.562C143.815 182.894 144.008 183.195 144.263 183.444C144.517 183.693 144.826 183.883 145.166 184C145.846 184.23 146.559 184.354 147.279 184.368C151.016 184.631 154.753 184.783 158.49 184.823C158.972 184.872 159.458 184.784 159.891 184.571C160.682 184.033 160.625 182.864 160.405 181.942Z" fill="black"/>
</g>
<path d="M135.73 156.782C135.85 156.963 135.949 157.156 136.024 157.358C136.199 157.731 136.437 158.28 136.719 158.966C137.284 160.332 138.041 162.259 138.804 164.36C139.567 166.462 140.2 168.427 140.623 169.848C140.838 170.55 141.008 171.126 141.109 171.527C141.182 171.729 141.228 171.939 141.245 172.153C141.143 171.964 141.062 171.765 141.002 171.56L140.437 169.914C139.962 168.514 139.307 166.583 138.539 164.465C137.77 162.346 137.058 160.431 136.538 159.048C136.295 158.401 136.092 157.852 135.928 157.402C135.837 157.204 135.771 156.996 135.73 156.782Z" fill="black"/>
<path d="M135.702 158.527L142.036 180.966C142.147 181.333 142.379 181.654 142.696 181.88C143.014 182.107 143.399 182.225 143.793 182.217H157.529C157.793 182.225 158.056 182.176 158.298 182.071C158.54 181.967 158.754 181.81 158.924 181.614C159.095 181.417 159.217 181.185 159.282 180.936C159.346 180.687 159.352 180.427 159.298 180.175L153.743 157.748C153.642 157.37 153.412 157.036 153.091 156.8C152.77 156.564 152.377 156.44 151.975 156.447H137.454C137.186 156.439 136.92 156.49 136.676 156.597C136.433 156.705 136.218 156.865 136.048 157.066C135.879 157.268 135.759 157.504 135.699 157.757C135.639 158.011 135.64 158.274 135.702 158.527Z" fill="black"/>
<path d="M140.471 162.72C140.471 162.72 138.832 161.962 137.538 162.72C136.244 163.477 134.148 166.824 134.148 166.824L132.854 172.147L133.741 179.38L134.092 182.733L142.454 183.654V180.971L152.031 174.018C152.031 174.018 155.393 173.113 155.133 172.142C154.873 171.17 154.444 170.495 153.495 170.671C152.545 170.847 142.285 173.415 142.285 173.415C142.285 173.415 140.646 173.749 140.731 173.327C140.816 172.904 145.562 170.731 146.336 170.226C147.11 169.722 150.737 168.888 150.291 167.296C150.237 167.009 150.117 166.738 149.94 166.502C149.762 166.267 149.532 166.074 149.267 165.937C149.002 165.8 148.708 165.723 148.408 165.713C148.107 165.702 147.809 165.757 147.534 165.875L139.25 168.805L137.872 169.14L138.047 167.044L139.51 165.118C139.641 165.158 139.779 165.172 139.916 165.159C140.053 165.147 140.185 165.108 140.306 165.044C140.427 164.981 140.533 164.894 140.619 164.79C140.704 164.686 140.767 164.566 140.804 164.437C140.92 164.149 140.951 163.836 140.892 163.532C140.833 163.228 140.687 162.947 140.471 162.72Z" fill="#FFBE9D"/>
<path d="M139.358 168.767C138.722 169.121 138.039 169.39 137.329 169.568C136.652 169.845 135.939 170.029 135.211 170.117C135.848 169.766 136.53 169.496 137.239 169.316C137.917 169.042 138.63 168.857 139.358 168.767Z" fill="#EB996E"/>
<path d="M141.245 173.601C140.651 173.919 140.014 174.154 139.352 174.298C138.718 174.534 138.052 174.678 137.375 174.726C138.602 174.177 139.906 173.807 141.245 173.629V173.601Z" fill="#EB996E"/>
<path d="M151.506 174.101C151.359 174.214 151.198 174.308 151.026 174.381C150.704 174.545 150.235 174.77 149.641 175.034C148.105 175.708 146.534 176.305 144.935 176.822C143.335 177.345 141.707 177.782 140.058 178.134C139.426 178.271 138.928 178.364 138.55 178.419C138.365 178.461 138.175 178.481 137.985 178.48C138.646 178.259 139.319 178.075 140.002 177.931C141.251 177.618 142.968 177.152 144.833 176.548C146.698 175.944 148.359 175.313 149.557 174.841C150.191 174.559 150.842 174.312 151.506 174.101Z" fill="#EB996E"/>
<path d="M136.341 178.035C136.312 178.107 135.776 177.832 135.606 177.196C135.437 176.559 135.719 176.06 135.781 176.098C135.843 176.137 135.73 176.581 135.889 177.108C136.047 177.635 136.386 177.969 136.341 178.035Z" fill="#EB996E"/>
<path d="M134.691 173.804C134.691 173.837 134.538 173.804 134.346 173.711C134.106 173.551 133.925 173.319 133.832 173.051C133.738 172.783 133.736 172.493 133.826 172.224C133.905 172.021 134.007 171.928 134.041 171.944C134.075 171.961 133.917 172.432 134.114 172.959C134.312 173.486 134.691 173.728 134.691 173.804Z" fill="#EB996E"/>
<path d="M133.736 168.624C133.74 168.713 133.731 168.802 133.708 168.888C133.668 169.091 133.617 169.332 133.561 169.634C133.419 170.325 133.222 171.28 132.996 172.411V172.378C133.363 174.924 133.866 178.611 134.414 182.749V182.782V182.82C134.306 183.1 134.188 183.397 134.075 183.698C132.842 187.084 132.267 190.662 132.38 194.251C132.411 195.338 132.503 196.422 132.657 197.499C132.707 197.856 132.747 198.147 132.781 198.378C132.804 198.48 132.814 198.585 132.809 198.69C132.771 198.592 132.743 198.491 132.724 198.388C132.679 198.191 132.606 197.9 132.538 197.516C132.346 196.438 132.223 195.349 132.171 194.256C131.995 190.635 132.547 187.015 133.798 183.6C133.911 183.298 134.03 182.996 134.137 182.716V182.787C133.572 178.644 133.12 174.957 132.815 172.4L133.487 169.656C133.566 169.359 133.628 169.107 133.679 168.92C133.69 168.82 133.709 168.721 133.736 168.624Z" fill="#EB996E"/>
<path d="M143.833 180.186C143.29 180.73 142.638 181.16 141.917 181.448C141.237 181.819 140.485 182.049 139.708 182.123C139.708 182.047 140.657 181.728 141.787 181.191C142.917 180.653 143.782 180.115 143.833 180.186Z" fill="#EB996E"/>
<path d="M196.843 191.589C196.843 191.589 199.03 192.138 199.245 193.521C199.46 194.904 197.714 218.764 197.714 218.764H199.793C199.793 218.764 200.623 195.129 200.59 193.439C200.556 191.749 199.731 191.639 199.42 191.518C198.574 191.281 197.674 191.306 196.843 191.589Z" fill="black"/>
<path d="M195.742 191.546L205.748 191.919L203.754 180.186L204.437 174.507L217.699 163.751C217.699 163.751 222.337 189.883 222.755 192.901C223.253 196.523 222.529 201.324 220.721 203.042C219.179 204.502 208.065 203.042 203.771 203.042C201.398 203.042 195.725 203.08 195.725 203.08L193.736 194.07L195.742 191.546Z" fill="#FFBE9D"/>
<path d="M220.721 191.952C220.682 192.001 220.004 191.403 218.699 190.854C217.008 190.112 215.154 189.788 213.303 189.91C212.289 189.976 211.29 190.183 210.336 190.525C209.46 190.832 208.703 191.238 208.031 191.491C207.501 191.71 206.942 191.854 206.37 191.919C206.162 191.957 205.95 191.957 205.743 191.919C206.505 191.836 207.249 191.636 207.946 191.326C208.602 191.052 209.342 190.635 210.24 190.3C211.215 189.934 212.242 189.714 213.286 189.647C215.183 189.519 217.08 189.879 218.789 190.689C219.3 190.936 219.788 191.226 220.247 191.557C220.42 191.67 220.58 191.802 220.721 191.952Z" fill="#EB996E"/>
<path d="M185.424 213.183C185.057 213.638 180.831 249 180.831 249L224.75 248.857L217.789 213.293L185.424 213.183Z" fill="#0F2944"/>
<path d="M192.707 248.907C192.628 248.907 192.171 240.961 191.69 231.149C191.21 221.337 190.888 213.402 190.973 213.402C191.058 213.402 191.504 221.348 191.984 231.16C192.464 240.972 192.787 248.901 192.707 248.907Z" fill="black"/>
<path d="M174.807 192.138C176.021 191.967 177.221 191.72 178.401 191.397C178.954 191.136 179.488 190.839 180 190.508L185.65 190.064L195.736 191.546C195.736 191.546 197.431 192.731 197.188 196.369C196.982 198.806 196.442 201.205 195.583 203.503C195.583 203.503 191.063 207.075 189.854 207.295C188.645 207.514 181.752 207.141 181.068 206.62C180.664 206.323 180.326 205.949 180.074 205.522C179.705 205.34 179.409 205.045 179.229 204.683C179.05 204.322 178.997 203.913 179.079 203.519C179.079 203.519 176.712 200.551 176.406 199.288C176.101 198.026 176.48 197.73 176.48 197.73C176.48 197.73 175.796 196.023 176.327 195.431C176.461 195.286 176.623 195.169 176.805 195.087C176.986 195.005 177.183 194.959 177.382 194.952C177.582 194.946 177.782 194.978 177.968 195.048C178.155 195.118 178.325 195.224 178.469 195.359C179.006 195.952 182.368 195.508 182.368 195.508L185.345 193.576C183.813 193.954 182.255 194.227 180.684 194.394C179.085 194.437 174.271 195.48 174.807 192.138Z" fill="#FFBE9D"/>
<path d="M186.498 199.135C186.498 199.179 185.882 199.283 184.921 199.607C184.441 199.766 183.87 199.974 183.226 200.155C182.519 200.386 181.78 200.516 181.034 200.54C180.27 200.563 179.515 200.372 178.859 199.991C178.34 199.672 177.88 199.271 177.497 198.806C177.241 198.499 177.005 198.176 176.791 197.84C176.638 197.604 176.565 197.467 176.582 197.456C176.599 197.445 176.983 197.938 177.655 198.674C178.04 199.105 178.492 199.475 178.994 199.771C179.613 200.113 180.317 200.28 181.028 200.254C182.554 200.216 183.854 199.651 184.865 199.398C185.389 199.219 185.942 199.13 186.498 199.135Z" fill="#EB996E"/>
<path d="M188.555 196.523C188.583 196.523 188.69 196.589 188.769 196.792C188.865 197.056 188.865 197.345 188.769 197.609C188.677 197.876 188.491 198.104 188.244 198.251C188.052 198.361 187.916 198.361 187.899 198.328C187.882 198.295 188.312 198.037 188.492 197.516C188.673 196.995 188.481 196.556 188.555 196.523Z" fill="#EB996E"/>
<path d="M188.329 203.014C187.866 203.144 187.391 203.227 186.91 203.261C186.029 203.382 184.808 203.525 183.464 203.662C182.827 203.745 182.185 203.793 181.543 203.805C181.008 203.815 180.477 203.733 179.972 203.563C179.488 203.437 179.07 203.142 178.797 202.735C179.173 203.01 179.593 203.225 180.04 203.371C180.528 203.507 181.035 203.565 181.543 203.541C182.108 203.541 182.757 203.448 183.43 203.382C184.78 203.239 186.001 203.13 186.888 203.064C187.365 203.001 187.848 202.984 188.329 203.014Z" fill="#EB996E"/>
<path d="M190.939 200.666C190.973 200.666 191.08 200.776 191.154 201.022C191.25 201.345 191.25 201.688 191.154 202.01C191.059 202.334 190.876 202.626 190.623 202.855C190.425 203.02 190.267 203.069 190.25 203.042C190.233 203.014 190.685 202.603 190.871 201.944C190.947 201.522 190.97 201.093 190.939 200.666Z" fill="#EB996E"/>
<path d="M189.317 206.005C188.88 206.13 188.428 206.196 187.972 206.203C185.787 206.372 183.588 206.239 181.441 205.808C180.989 205.748 180.548 205.628 180.13 205.451C180.582 205.465 181.032 205.518 181.475 205.61C182.3 205.731 183.441 205.868 184.707 205.945C185.972 206.022 187.125 206.022 187.961 206.005C188.412 205.964 188.866 205.964 189.317 206.005Z" fill="#EB996E"/>
<path d="M198.878 191.386C198.878 191.386 200.855 192.824 201.222 193.697C201.59 194.569 205.539 213.177 205.539 213.177H207.234C207.234 213.177 203.206 193.016 202.222 192.237C201.869 191.96 201.491 191.713 201.092 191.502C200.76 191.331 200.394 191.231 200.019 191.21C199.644 191.188 199.268 191.244 198.917 191.375L198.878 191.386Z" fill="black"/>
<path d="M160.292 195.041C159.729 195.113 159.159 195.113 158.597 195.041C155.909 194.796 153.318 193.943 151.031 192.55C150.545 192.281 150.095 191.955 149.692 191.578C149.72 191.54 150.257 191.891 151.139 192.374C152.295 193.012 153.512 193.541 154.772 193.955C156.031 194.365 157.327 194.662 158.642 194.844C159.659 194.964 160.292 194.997 160.292 195.041Z" fill="black"/>
<g opacity="0.3">
<path d="M170.197 194.745C169.16 194.657 168.116 194.696 167.089 194.86C161.806 195.409 156.354 195.409 151.511 192.78C152.207 194.191 153.397 195.315 154.868 195.952C156.543 196.508 158.302 196.788 160.072 196.781C164.321 196.949 168.578 196.766 172.796 196.232C172.503 195.813 172.118 195.462 171.668 195.205C171.219 194.948 170.716 194.79 170.197 194.745Z" fill="black"/>
</g>
<path d="M154.065 142.064C154.065 140.117 153.269 138.25 151.851 136.873C150.433 135.496 148.51 134.722 146.505 134.722H100.478C98.5099 134.774 96.6401 135.571 95.2667 136.941C93.8934 138.312 93.125 140.149 93.125 142.062C93.125 143.974 93.8934 145.811 95.2667 147.182C96.6401 148.553 98.5099 149.349 100.478 149.401H127.989C130.572 151.821 134.984 155.086 134.984 155.086V149.132L147.059 149.368C151.189 149.248 154.065 145.906 154.065 142.064Z" fill="white"/>
<path d="M154.065 142.064C154.065 142.064 154.065 142.196 154.065 142.465C154.055 142.86 154.009 143.252 153.93 143.639C153.805 144.271 153.6 144.885 153.32 145.467C152.922 146.261 152.383 146.98 151.726 147.59C150.894 148.35 149.884 148.9 148.782 149.193C148.475 149.272 148.164 149.336 147.85 149.385C147.522 149.422 147.192 149.442 146.861 149.445L144.776 149.412L134.99 149.242L135.098 149.138C135.098 151.015 135.098 153.007 135.098 155.081V155.317L134.911 155.174C132.651 153.479 130.238 151.635 127.893 149.489L127.984 149.528H111.316H102.247C101.467 149.528 100.704 149.555 99.9021 149.5C98.3622 149.382 96.8938 148.819 95.6856 147.884C94.4774 146.95 93.5846 145.685 93.1218 144.254C92.937 143.654 92.827 143.035 92.7941 142.41C92.7655 141.789 92.811 141.167 92.9297 140.555C93.0624 139.95 93.2691 139.362 93.5456 138.805C94.087 137.708 94.897 136.757 95.9047 136.035C96.9124 135.312 98.087 134.841 99.3258 134.662C99.9266 134.582 100.533 134.551 101.14 134.569H113.22L136.719 134.601H145.76C146.404 134.581 147.048 134.614 147.686 134.7C148.279 134.791 148.859 134.948 149.415 135.167C150.384 135.56 151.259 136.143 151.986 136.879C152.568 137.461 153.043 138.137 153.387 138.876C153.527 139.171 153.65 139.473 153.755 139.782C153.834 140.067 153.902 140.33 153.952 140.561C154.023 140.923 154.062 141.29 154.071 141.658C154.071 141.905 154.071 142.032 154.071 142.032C154.071 142.032 154.071 141.905 154.037 141.658C154.013 141.29 153.964 140.923 153.89 140.561C153.834 140.33 153.76 140.072 153.676 139.793C153.572 139.488 153.448 139.191 153.303 138.904C152.955 138.176 152.479 137.513 151.896 136.945C151.174 136.234 150.311 135.674 149.359 135.298C148.813 135.088 148.244 134.939 147.664 134.854C147.033 134.771 146.396 134.742 145.76 134.766H136.719H113.22H101.14C100.548 134.746 99.9568 134.775 99.371 134.854C97.8741 135.082 96.484 135.748 95.3852 136.761C94.2863 137.774 93.5305 139.088 93.2179 140.528C92.9836 141.712 93.0456 142.933 93.3987 144.089C93.5899 144.666 93.8517 145.219 94.1784 145.736C94.7884 146.705 95.6281 147.52 96.6276 148.11C97.6272 148.701 98.7576 149.052 99.9247 149.132C100.682 149.187 101.479 149.132 102.247 149.16H111.321H127.989H128.04L128.08 149.193C130.402 151.327 132.809 153.177 135.058 154.878L134.866 154.966C134.866 152.891 134.866 150.899 134.866 149.023V148.918H134.979L144.759 149.132C146.195 149.132 147.551 149.303 148.715 148.94C149.795 148.694 150.799 148.199 151.641 147.497C152.293 146.903 152.831 146.2 153.229 145.423C153.694 144.496 153.966 143.489 154.032 142.46C154.048 142.191 154.065 142.064 154.065 142.064Z" fill="black"/>
<path d="M144.132 144.353C144.012 144.361 143.891 144.361 143.771 144.353C143.227 144.282 142.718 144.057 142.306 143.706C141.894 143.354 141.599 142.892 141.458 142.378C141.316 141.863 141.335 141.32 141.511 140.816C141.687 140.312 142.013 139.87 142.448 139.545C142.883 139.221 143.407 139.029 143.953 138.994C144.5 138.958 145.046 139.081 145.521 139.346C145.996 139.612 146.38 140.008 146.623 140.485C146.867 140.962 146.96 141.498 146.89 142.026C146.796 142.671 146.465 143.262 145.958 143.69C145.452 144.117 144.803 144.353 144.132 144.353ZM144.132 139.507C143.596 139.507 143.077 139.697 142.675 140.042C142.272 140.386 142.013 140.862 141.946 141.379C141.872 141.943 142.03 142.513 142.387 142.964C142.744 143.415 143.269 143.711 143.85 143.788C144.432 143.861 145.02 143.706 145.485 143.359C145.95 143.011 146.254 142.498 146.33 141.933C146.368 141.653 146.349 141.369 146.274 141.096C146.199 140.824 146.069 140.569 145.892 140.345C145.716 140.121 145.495 139.933 145.243 139.792C144.992 139.652 144.714 139.56 144.426 139.524C144.327 139.513 144.227 139.507 144.127 139.507H144.132Z" fill="black"/>
<path d="M147.907 144.984C147.84 144.983 147.776 144.959 147.726 144.918L145.912 143.447C145.884 143.424 145.86 143.396 145.843 143.364C145.825 143.332 145.815 143.297 145.811 143.261C145.808 143.225 145.812 143.189 145.823 143.155C145.834 143.12 145.852 143.088 145.875 143.06C145.899 143.033 145.928 143.01 145.961 142.993C145.994 142.976 146.03 142.966 146.067 142.962C146.104 142.959 146.141 142.963 146.177 142.974C146.212 142.984 146.245 143.002 146.274 143.025L148.087 144.495C148.145 144.542 148.182 144.61 148.189 144.682C148.196 144.755 148.174 144.828 148.127 144.885C148.1 144.916 148.066 144.942 148.028 144.959C147.99 144.976 147.949 144.984 147.907 144.984Z" fill="black"/>
</svg>
